<?xml version="1.0" encoding="utf-8"?>
<!-- Generator: Adobe Illustrator 19.0.0, SVG Export Plug-In . SVG Version: 6.00 Build 0)  -->
<svg version="1.1" id="Capa_1" xmlns="http://www.w3.org/2000/svg" xmlns:xlink="http://www.w3.org/1999/xlink" x="0px" y="0px"
	 viewBox="0 0 60 30" style="enable-background:new 0 0 60 30;" xml:space="preserve">
<style type="text/css">
	.st0{fill:#8EBB13;}
	.st1{fill:#4781BE;}
</style>
<g id="XMLID_19_">
	<g id="XMLID_26_">
		<path id="XMLID_49_" class="st0" d="M15.1,14.2c-0.1,0.3-0.2,0.6-0.2,0.9c-0.1,0.3-0.1,0.6-0.2,0.9l-0.1,0.1
			c-0.4,0.2-0.9,0.4-1.8,0.4c-2.4,0-3.4-1.5-3.4-3.4c0-2.2,1.4-4.6,4.4-4.6c0.4,0,0.8,0,1.2,0.1c0.5,0.1,0.7,0.2,1,0.4l0,0.1
			l-0.5,1.7l-0.1,0c-0.2-0.2-0.6-0.6-1.5-0.6c-1.6,0-2.3,1.7-2.3,2.7c0,1.1,0.6,1.8,1.7,1.8C14.2,14.7,14.6,14.4,15.1,14.2
			L15.1,14.2z"/>
		<path id="XMLID_46_" class="st0" d="M20.8,15.1c-0.8,1.3-2.3,1.3-2.8,1.3c-1.6,0-2.6-0.8-2.6-2.4c0-0.9,0.3-1.9,0.9-2.6
			c0.8-0.9,1.8-1,2.5-1c0.7,0,1.3,0.2,1.5,0.3c1.1,0.6,1.1,1.8,1.1,2.1c0,0.4,0,0.8-0.1,1.1C21.1,14.3,20.9,14.8,20.8,15.1z
			 M19.2,12.4c0-0.4-0.2-0.7-0.5-0.7c-0.4,0-0.6,0.5-0.7,0.6c-0.3,0.5-0.5,1.6-0.5,2c0,0.2,0,0.7,0.5,0.7c0.6,0,0.9-0.8,1-1.7
			C19.2,12.9,19.2,12.5,19.2,12.4z"/>
		<path id="XMLID_44_" class="st0" d="M23.4,16.2L23.4,16.2l-2.3,0.1l-0.1-0.1l0.4-1.6l0.2-0.9c0.3-1.4,0.4-1.7,0.6-3l0.1-0.1
			c1.1-0.2,1.3-0.2,2.3-0.4l0.1,0.1l-0.4,1.4c0.6-1.2,1.3-1.4,1.6-1.4c0.2,0,0.4,0.1,0.5,0.1l0,0.1l-0.9,2.1l-0.1,0
			c-0.2-0.2-0.3-0.3-0.6-0.3c-0.2,0-0.3,0.1-0.5,0.2c-0.3,0.2-0.4,0.5-0.6,1.5l-0.2,1.1L23.4,16.2z"/>
		<path id="XMLID_41_" class="st0" d="M28.8,10.9c0.2-0.1,0.7-0.5,1.5-0.5c1,0,1.8,0.7,1.8,2.2c0,1.2-0.5,2.3-1.4,3
			c-0.9,0.7-1.9,0.8-3,0.8l-0.5,2.6L27.1,19c-0.3,0-0.6,0-0.9,0c-0.5,0-0.9,0-1.4,0l-0.1-0.1l0.7-2.6l0.2-0.8
			c0.3-1.4,0.8-3.4,0.9-4.8l0.1-0.1l2.3-0.4l0.1,0.1L28.8,10.9z M28,14.9c0,0,0.1,0,0.2,0c0.4,0,0.9-0.2,1.1-0.6
			c0.4-0.5,0.5-1.3,0.5-1.7c0-0.4-0.2-0.8-0.6-0.8c-0.1,0-0.3,0-0.6,0.2L28,14.9z"/>
		<path id="XMLID_38_" class="st0" d="M37.5,15.1c-0.8,1.3-2.3,1.3-2.8,1.3c-1.6,0-2.6-0.8-2.6-2.4c0-0.9,0.3-1.9,0.9-2.6
			c0.8-0.9,1.8-1,2.5-1c0.7,0,1.3,0.2,1.5,0.3c1.1,0.6,1.1,1.8,1.1,2.1c0,0.4,0,0.8-0.1,1.1C37.9,14.3,37.7,14.8,37.5,15.1z
			 M36,12.4c0-0.4-0.2-0.7-0.5-0.7c-0.4,0-0.6,0.5-0.7,0.6c-0.3,0.5-0.5,1.6-0.5,2c0,0.2,0,0.7,0.5,0.7c0.6,0,0.9-0.8,1-1.7
			C35.9,12.9,36,12.5,36,12.4z"/>
		<path id="XMLID_35_" class="st1" d="M38.7,16.3L38.7,16.3c0-0.9,0-1.6,0-2.6c0-3,0-3.9-0.1-5l0.1-0.1l1.1,0c0.5,0,1,0,1.5,0
			c1.2,0,2.6,0,3.4,1.4c0.3,0.5,0.5,1.3,0.5,2.3c0,0.5-0.1,1.4-0.4,2.1c-0.8,1.9-2.8,2-4,2c-0.3,0-0.6,0-0.9,0H38.7z M42.4,14.5
			c0.3-0.2,0.8-0.8,0.8-2.2c0-2.3-1.3-2.3-2-2.3c-0.2,0-0.4,0-0.7,0c0,0.6,0,1.2,0,1.8c0,1,0,2,0,3.1C41.1,14.9,41.9,14.9,42.4,14.5
			z"/>
		<path id="XMLID_32_" class="st1" d="M50.6,13.9c0,1,0,1.3,0.1,2.4l-0.1,0.1c-0.7,0-0.9,0-1.7,0l-0.1-0.1v-0.4
			c-0.2,0.2-0.7,0.6-1.5,0.6c-1.1,0-1.9-0.7-1.9-1.9c0-0.5,0.2-1.1,0.8-1.5c0.6-0.4,1.3-0.5,2.6-0.7c0-0.2,0-0.4-0.1-0.5
			c-0.1-0.1-0.3-0.2-0.7-0.2c-0.7,0-1.4,0.3-1.8,0.4l-0.1,0l0.1-1.2l0.1-0.1c0.6-0.2,1.2-0.4,2.1-0.4c1.4,0,1.8,0.4,2,0.8
			c0.3,0.5,0.3,0.9,0.3,1.9L50.6,13.9z M48.8,13.5c-0.7,0.1-1.6,0.2-1.6,0.9c0,0.5,0.3,0.7,0.7,0.7c0.4,0,0.7-0.2,0.9-0.3V13.5z"/>
		<path id="XMLID_30_" class="st1" d="M54.6,15.1l-0.1,1.1l-0.1,0.1c-0.4,0.1-0.7,0.1-1.1,0.1c-1.7,0-1.7-1.1-1.7-2.1
			c0-0.3,0-0.6,0-0.8l0-1.7l-0.7,0l-0.1-0.1l0.1-1.2l0.1-0.1l0.6,0l0-1.4l0-0.1c0.8-0.2,1-0.2,1.7-0.5l0.1,0.1l0,1.8h1.1l0.1,0.1
			l-0.1,1.2l-0.1,0.1l-1,0l0,1.5c0,0.4,0,1,0,1.3c0,0.2,0.1,0.5,0.6,0.5C54.2,15.1,54.3,15.1,54.6,15.1L54.6,15.1z"/>
		<path id="XMLID_27_" class="st1" d="M59.7,13.9c0,1,0,1.3,0.1,2.4l-0.1,0.1c-0.7,0-0.9,0-1.7,0l-0.1-0.1v-0.4
			c-0.2,0.2-0.7,0.6-1.5,0.6c-1.1,0-1.9-0.7-1.9-1.9c0-0.5,0.2-1.1,0.8-1.5c0.7-0.4,1.3-0.5,2.6-0.7c0-0.2,0-0.4-0.1-0.5
			c-0.1-0.1-0.3-0.2-0.7-0.2c-0.7,0-1.4,0.3-1.8,0.4l-0.1,0l0.1-1.2l0.1-0.1c0.6-0.2,1.2-0.4,2.1-0.4c1.4,0,1.8,0.4,2,0.8
			c0.3,0.5,0.3,0.9,0.3,1.9L59.7,13.9z M57.9,13.5c-0.7,0.1-1.6,0.2-1.6,0.9c0,0.5,0.3,0.7,0.7,0.7c0.4,0,0.6-0.2,0.9-0.3V13.5z"/>
	</g>
	<g id="XMLID_22_">
		<g id="XMLID_24_">
			<path id="XMLID_2_" class="st0" d="M6.8,15.1c-0.7,0-1.3-0.3-1.8-0.8c-0.3,0.2-0.6,0.3-1,0.3c-1.1,0-2-0.9-2-2c0-1.1,0.9-2,2-2
				c0.4,0,0.7,0.1,1,0.3c0.5-0.5,1.1-0.8,1.8-0.8c0,0,0.1,0,0.1,0C6.2,9.3,5.1,8.7,4,8.7c-2.1,0-3.9,1.7-3.9,3.9
				c0,2.1,1.7,3.9,3.9,3.9c1.2,0,2.2-0.5,2.9-1.4C6.9,15.1,6.8,15.1,6.8,15.1z"/>
		</g>
		<circle id="XMLID_1_" class="st1" cx="6.8" cy="12.6" r="2.1"/>
	</g>
</g>
</svg>
